Coordinates
version=1
nRows=65
nColumns=12
inDegrees=yes

Units are S.I. units (second, meters, Newtons, ...)
Angles are in degrees

endheader
time	SC_y	SC_z	SC_x	AC_y	AC_z	AC_x	GH_y	GH_z	GH_yy	EL_x	PS_y
       0.0              -23.31         -4.815          28.58          30.61         -19.22          13.99         -31.44          70.93         -3.034          5.346          123.0
  0.007827              -23.31         -4.814          28.59          30.62         -19.22          13.98         -31.46          70.93         -3.041          5.355          123.0
   0.01565              -23.32         -4.813          28.59          30.62         -19.22          13.98         -31.47          70.92         -3.049          5.364          123.0
   0.02348              -23.32         -4.811          28.59          30.62         -19.22          13.97         -31.49          70.92         -3.057          5.373          123.0
   0.03131              -23.33          -4.81          28.59          30.62         -19.22          13.97         -31.51          70.91         -3.066          5.384          123.0
   0.03913              -23.33         -4.808          28.59          30.63         -19.22          13.96         -31.53           70.9         -3.075          5.395          123.0
   0.04696              -23.34         -4.806           28.6          30.63         -19.22          13.96         -31.55           70.9         -3.085          5.406          123.0
   0.05479              -23.35         -4.805           28.6          30.63         -19.22          13.95         -31.57          70.89         -3.096          5.419          123.0
   0.06261              -23.36         -4.803           28.6          30.63         -19.22          13.94         -31.59          70.88         -3.107          5.432          123.0
   0.07044              -23.37           -4.8           28.6          30.64         -19.22          13.94         -31.62          70.87          -3.12          5.446          123.0
   0.07827              -23.37         -4.798          28.61          30.64         -19.22          13.93         -31.65          70.86         -3.133          5.462          123.0
   0.08609              -23.38         -4.796          28.61          30.64         -19.22          13.92         -31.67          70.86         -3.147          5.478          123.1
   0.09392               -23.4         -4.793          28.61          30.65         -19.21          13.91         -31.71          70.84         -3.162          5.496          123.1
    0.1017              -23.41          -4.79          28.62          30.65         -19.21           13.9         -31.74          70.83         -3.179          5.515          123.1
    0.1096              -23.42         -4.787          28.62          30.66         -19.21          13.89         -31.78          70.82         -3.196          5.536          123.1
    0.1174              -23.43         -4.784          28.63          30.66         -19.21          13.88         -31.82          70.81         -3.216          5.559          123.1
    0.1252              -23.45          -4.78          28.63          30.67         -19.21          13.86         -31.86          70.79         -3.237          5.583          123.1
    0.1331              -23.46         -4.776          28.64          30.67         -19.21          13.85         -31.91          70.78          -3.26           5.61          123.1
    0.1409              -23.48         -4.772          28.64          30.68         -19.21          13.84         -31.96          70.76         -3.285          5.639          123.1
    0.1487               -23.5         -4.767          28.65          30.69         -19.21          13.82         -32.02          70.74         -3.312          5.671          123.1
    0.1565              -23.52         -4.761          28.66          30.69         -19.21           13.8         -32.08          70.72         -3.342          5.706          123.2
    0.1644              -23.54         -4.756          28.67           30.7         -19.21          13.78         -32.15           70.7         -3.375          5.745          123.2
    0.1722              -23.57         -4.749          28.68          30.71         -19.21          13.76         -32.22          70.68         -3.411          5.788          123.2
      0.18               -23.6         -4.742          28.69          30.72         -19.21          13.73         -32.31          70.65         -3.452          5.835          123.2
    0.1878              -23.63         -4.734           28.7          30.73         -19.21          13.71          -32.4          70.62         -3.497          5.888          123.2
    0.1957              -23.66         -4.726          28.71          30.75         -19.21          13.67          -32.5          70.58         -3.547          5.946          123.3
    0.2035               -23.7         -4.716          28.72          30.76          -19.2          13.64         -32.62          70.55         -3.603          6.012          123.3
    0.2113              -23.75         -4.705          28.74          30.78          -19.2           13.6         -32.75           70.5         -3.666          6.086          123.3
    0.2191               -23.8         -4.692          28.76           30.8          -19.2          13.56          -32.9          70.45         -3.738           6.17          123.4
     0.227              -23.86         -4.678          28.78          30.82          -19.2          13.51         -33.07           70.4         -3.819          6.265          123.4
    0.2348              -23.92         -4.662           28.8          30.84          -19.2          13.45         -33.26          70.34         -3.911          6.373          123.5
    0.2426              -23.99         -4.643          28.82          30.87         -19.19          13.39         -33.48          70.26         -4.017          6.497          123.5
    0.2505              -24.08         -4.622          28.85           30.9         -19.19          13.31         -33.73          70.18          -4.14          6.641          123.6
    0.2583              -24.18         -4.597          28.89          30.94         -19.19          13.23         -34.03          70.08         -4.283          6.807          123.7
    0.2661               -24.3         -4.568          28.93          30.98         -19.18          13.12         -34.37          69.97         -4.449          7.002          123.7
    0.2739              -24.43         -4.533          28.98          31.03         -19.18           13.0         -34.78          69.84         -4.646          7.232          123.9
    0.2818               -24.6         -4.492          29.04          31.09         -19.17          12.86         -35.27          69.68         -4.879          7.506          124.0
    0.2896              -24.79         -4.443           29.1          31.16         -19.16          12.69         -35.85          69.49         -5.159          7.833          124.1
    0.2974              -25.03         -4.384          29.19          31.25         -19.16          12.48         -36.55          69.26         -5.498           8.23          124.3
    0.3052              -25.32         -4.312          29.29          31.36         -19.14          12.23          -37.4          68.98         -5.912          8.714          124.5
    0.3131              -25.68         -4.222          29.41          31.49         -19.13          11.92         -38.46          68.63         -6.422          9.312          124.8
    0.3209              -26.13         -4.111          29.57          31.66         -19.12          11.53         -39.78           68.2         -7.059          10.06          125.1
    0.3287              -26.69         -3.971          29.77          31.86         -19.09          11.04         -41.44          67.65         -7.861           11.0          125.6
    0.3365               -27.4         -3.792          30.02          32.13         -19.07          10.42         -43.56          66.96         -8.881          12.19          126.1
    0.3444              -28.32         -3.564          30.34          32.47         -19.04          9.622         -46.26          66.08         -10.19          13.72          126.8
    0.3522              -29.49         -3.271          30.75           32.9         -18.99          8.599         -49.73          64.94         -11.86          15.68          127.7
      0.36              -30.99         -2.897          31.27          33.45         -18.94          7.293         -54.17          63.48          -14.0          18.18          128.9
    0.3678              -32.87         -2.426          31.93          34.15         -18.87          5.651         -59.74          61.66         -16.69          21.33          130.3
    0.3757              -35.17         -1.852          32.73           35.0         -18.79           3.65         -66.53          59.43         -19.97          25.17          132.1
    0.3835              -37.83         -1.187          33.67          35.98         -18.69           1.33         -74.41          56.85         -23.77          29.61          134.1
    0.3913              -40.71        -0.4676          34.67          37.05         -18.58         -1.181         -82.94          54.06         -27.88          34.43          136.3
    0.3992              -43.59         0.2523          35.68          38.11         -18.48         -3.693         -91.46          51.26          -32.0          39.24          138.5
     0.407              -46.26         0.9171          36.61           39.1         -18.38         -6.013         -99.34          48.68         -35.79          43.69          140.5
    0.4148              -48.55          1.491          37.42          39.95          -18.3         -8.014         -106.1          46.46         -39.07          47.53          142.3
    0.4226              -50.44          1.961          38.08          40.64         -18.23         -9.656         -111.7          44.63         -41.76          50.67          143.7
    0.4305              -51.93          2.336           38.6           41.2         -18.17         -10.96         -116.1          43.18          -43.9          53.18          144.9
    0.4383              -53.11          2.629          39.01          41.63         -18.13         -11.98         -119.6          42.04         -45.58          55.14          145.8
    0.4461              -54.02          2.857          39.33          41.97          -18.1         -12.78         -122.3          41.15         -46.88          56.67          146.5
    0.4539              -54.74          3.036          39.58          42.23         -18.07          -13.4         -124.4          40.46          -47.9          57.86          147.0
    0.4618               -55.3          3.176          39.78          42.44         -18.05         -13.89         -126.1          39.92          -48.7           58.8          147.4
    0.4696              -55.74          3.287          39.93           42.6         -18.03         -14.28         -127.4          39.48         -49.34          59.54          147.8
    0.4774               -56.1          3.377          40.06          42.74         -18.02         -14.59         -128.5          39.14         -49.85          60.14          148.1
    0.4852              -56.39          3.449          40.16          42.84         -18.01         -14.85         -129.3          38.86         -50.26          60.62          148.3
    0.4931              -56.63          3.508          40.24          42.93          -18.0         -15.05         -130.0          38.63          -50.6          61.02          148.5
    0.5009              -56.83          3.557          40.31           43.0         -17.99         -15.22         -130.6          38.44         -50.88          61.35          148.6
